<svg xmlns="http://www.w3.org/2000/svg" xmlns:xlink="http://www.w3.org/1999/xlink" width="992.834" height="315.912" viewBox="0 0 992.834 315.912"><defs><linearGradient id="linear-gradient" x1="0.008" y1="0.59" x2="0.992" y2="0.41" gradientUnits="objectBoundingBox"><stop offset="0" stop-color="#fd3376"></stop><stop offset="0.183" stop-color="#fd456c"></stop><stop offset="0.444" stop-color="#fe5762"></stop><stop offset="0.713" stop-color="#fe635c"></stop><stop offset="1" stop-color="#ff675a"></stop></linearGradient></defs><g id="dayoff-logo" transform="translate(-5.45 -352.715)"><g id="Layer_3" data-name="Layer 3"><g id="Group_1" data-name="Group 1"><rect id="Rectangle_1" data-name="Rectangle 1" width="271.398" height="271.398" rx="104" transform="matrix(0.984, -0.18, 0.18, 0.984, 5.45, 401.684)" fill="url(#linear-gradient)"></rect><path id="Path_1" data-name="Path 1" d="M248.855,540.235A88.419,88.419,0,1,0,77.569,527.691a89.069,89.069,0,0,0,3.073,12.563l25.537-8.74c-.605-2.122-1.266-5.285-1.643-7.512A60.054,60.054,0,1,1,221.3,531.178Z" fill="#fff"></path><path id="Path_2" data-name="Path 2" d="M134.333,572.692a22,22,0,0,0,22-22v-40l21-.334v42.667c0,22.644-19.356,41-42,41Z" fill="#fff"></path></g></g><g id="Layer_4" data-name="Layer 4"><g id="Group_2" data-name="Group 2"><path id="Path_3" data-name="Path 3" d="M358.647,557.353Q354.8,553.5,354.8,546.327V452.7q0-7.173,3.849-11.025t11.026-3.85h35.349q20.477,0,35.263,7.438a52.627,52.627,0,0,1,22.663,21.262q7.875,13.827,7.875,32.9,0,19.253-7.788,33.163a51.421,51.421,0,0,1-22.575,21.263q-14.79,7.348-35.438,7.349H369.673Q362.5,561.2,358.647,557.353Zm44.1-22.05q18.023,0,27.037-8.838t9.013-27.038q0-18.2-9.013-26.95t-27.037-8.75H387V535.3Z" fill="#424242"></path><path id="Path_4" data-name="Path 4" d="M557.534,482.54q9.537,9.54,9.537,28.962v36.575q0,6.654-3.937,10.413T552.2,562.252a14.566,14.566,0,0,1-10.062-3.5,13.091,13.091,0,0,1-4.287-9.449,19.383,19.383,0,0,1-8.225,9.8,26.2,26.2,0,0,1-13.826,3.5,35.53,35.53,0,0,1-16.1-3.588,27.962,27.962,0,0,1-11.288-9.975A26.086,26.086,0,0,1,484.3,534.6q0-9.275,4.813-14.789t15.312-7.962q10.5-2.448,28.351-2.45H537.5v-2.1q0-6.123-2.8-8.837t-9.449-2.713q-7.178,0-21,4.9a21.44,21.44,0,0,1-6.826,1.4,8.65,8.65,0,0,1-7-3.15,12.417,12.417,0,0,1-2.625-8.225,11.47,11.47,0,0,1,1.576-6.3A13.68,13.68,0,0,1,494.447,480a61.063,61.063,0,0,1,15.4-5.075,89.488,89.488,0,0,1,18.2-1.925Q548,473,557.534,482.54Zm-24.062,54.774a16.466,16.466,0,0,0,4.025-11.461v-2.1h-2.8q-11.2,0-15.924,2.013t-4.726,6.737a9.17,9.17,0,0,0,2.539,6.65,8.714,8.714,0,0,0,6.562,2.625A13.279,13.279,0,0,0,533.472,537.314Z" fill="#424242"></path><path id="Path_5" data-name="Path 5" d="M647.4,475.627a13.476,13.476,0,0,1,7.35-2.1,15.563,15.563,0,0,1,10.324,3.85,11.76,11.76,0,0,1,4.551,9.275,12.771,12.771,0,0,1-1.4,5.775l-46.375,92.926a14.905,14.905,0,0,1-5.513,6.474,13.916,13.916,0,0,1-7.437,2.1,15.434,15.434,0,0,1-10.238-3.762,11.6,11.6,0,0,1-4.463-9.187,13.645,13.645,0,0,1,1.576-6.125l11.375-22.925-29.75-59.5a14.026,14.026,0,0,1-1.4-5.6,11.856,11.856,0,0,1,4.9-9.537,17.138,17.138,0,0,1,11.025-3.938,14.69,14.69,0,0,1,7.787,2.188,14.062,14.062,0,0,1,5.513,6.562l18.55,40.251L642.145,482.1A14.061,14.061,0,0,1,647.4,475.627Z" fill="#424242"></path><path id="Path_6" data-name="Path 6" d="M741.474,554.99a53.1,53.1,0,0,1-21.438-22.051q-7.526-14.259-7.525-33.512t7.525-33.512a52.586,52.586,0,0,1,21.438-21.963q13.911-7.7,32.812-7.7t32.813,7.7a52.071,52.071,0,0,1,21.349,21.963q7.437,14.265,7.438,33.512t-7.525,33.512a53.124,53.124,0,0,1-21.437,22.051q-13.914,7.789-32.638,7.787Q755.386,562.777,741.474,554.99Zm54.687-26.775q7.875-9.885,7.875-28.788t-7.963-28.7q-7.964-9.8-21.787-9.8-14,0-21.875,9.713t-7.875,28.787q0,19.077,7.875,28.876t21.875,9.8Q788.284,538.1,796.161,528.215Z" fill="#424242"></path><path id="Path_7" data-name="Path 7" d="M894.072,463.99A14.74,14.74,0,0,0,891.535,473v2.1h9.625q14,0,14,11.375,0,11.55-14,11.55h-9.625v49.526q0,7.178-4.463,10.849a18.637,18.637,0,0,1-22.224,0q-4.464-3.675-4.463-10.849V498.027H855.31q-14,0-14-11.55,0-11.373,14-11.375h5.075q.348-16.8,10.062-26.337T896.785,438l4.55-.35a31.2,31.2,0,0,1,3.675-.175q7.521,0,10.849,2.8t3.326,8.05q0,5.25-3.15,8.138a13.559,13.559,0,0,1-8.575,3.237l-4.55.35Q896.61,460.577,894.072,463.99Z" fill="#424242"></path><path id="Path_8" data-name="Path 8" d="M973.172,463.99A14.734,14.734,0,0,0,970.635,473v2.1h9.625q14,0,14,11.375,0,11.55-14,11.55h-9.625v49.526q0,7.178-4.463,10.849a18.638,18.638,0,0,1-22.225,0q-4.463-3.675-4.463-10.849V498.027h-5.075q-14,0-14-11.55,0-11.373,14-11.375h5.075q.349-16.8,10.063-26.337T975.885,438l4.55-.35a31.184,31.184,0,0,1,3.674-.175q7.523,0,10.85,2.8t3.325,8.05q0,5.25-3.149,8.138a13.561,13.561,0,0,1-8.575,3.237l-4.55.35Q975.71,460.577,973.172,463.99Z" fill="#424242"></path></g></g></g></svg>